<?xml version="1.0" encoding="UTF-8" standalone="no"?>
<!-- Created with Inkscape (http://www.inkscape.org/) -->

<svg
   xmlns:dc="http://purl.org/dc/elements/1.1/"
   xmlns:cc="http://creativecommons.org/ns#"
   xmlns:rdf="http://www.w3.org/1999/02/22-rdf-syntax-ns#"
   xmlns:svg="http://www.w3.org/2000/svg"
   xmlns="http://www.w3.org/2000/svg"
   xmlns:sodipodi="http://sodipodi.sourceforge.net/DTD/sodipodi-0.dtd"
   xmlns:inkscape="http://www.inkscape.org/namespaces/inkscape"
   width="210mm"
   height="297mm"
   viewBox="0 0 744.09448819 1052.3622047"
   id="svg2"
   version="1.1"
   inkscape:version="0.91 r13725"
   sodipodi:docname="wheel_base.svg">
  <sodipodi:namedview
     id="base"
     pagecolor="#ffffff"
     bordercolor="#666666"
     borderopacity="1.0"
     inkscape:pageopacity="0.0"
     inkscape:pageshadow="2"
     inkscape:zoom="0.62421875"
     inkscape:cx="146.54342"
     inkscape:cy="496.05138"
     inkscape:document-units="px"
     inkscape:current-layer="svg2"
     showgrid="false"
     inkscape:window-width="1680"
     inkscape:window-height="1001"
     inkscape:window-x="0"
     inkscape:window-y="1"
     inkscape:window-maximized="1" />
  <defs
     id="defs4" />
  <metadata
     id="metadata7">
    <rdf:RDF>
      <cc:Work
         rdf:about="">
        <dc:format>image/svg+xml</dc:format>
        <dc:type
           rdf:resource="http://purl.org/dc/dcmitype/StillImage" />
        <dc:title></dc:title>
      </cc:Work>
    </rdf:RDF>
  </metadata>
  <g
     id="layer1"
     inkscape:groupmode="layer"
     inkscape:label="Layer 1" />
  <g
     transform="matrix(7.9617886,0,0,7.9617886,369.22177,476.2108)"
     inkscape:label="Gear8"
     id="g7350">
    <path
       d="m 18.67401,-4.00471 4.72309,-1.01288 1.57839,0.04966 6.80888,3.24589 0,3.44408 -6.80888,3.24589 -1.57839,0.04966 -4.72309,-1.01288 -2.63774,6.36805 4.05596,2.62351 1.08097,1.15121 2.51941,7.1098 -2.43533,2.43533 -7.1098,-2.51941 -1.15121,-1.08097 -2.62351,-4.05596 -6.36805,2.63774 1.01288,4.72309 -0.04966,1.57839 -3.24589,6.80888 -3.44408,0 -3.24589,-6.80888 -0.04966,-1.57839 1.01288,-4.72309 -6.36805,-2.63774 -2.62351,4.05596 -1.15121,1.08097 -7.1098,2.51941 -2.43533,-2.43533 2.51941,-7.1098 1.08097,-1.15121 4.05596,-2.62351 -2.63774,-6.36805 -4.72309,1.01288 -1.57839,-0.04966 -6.80888,-3.24589 0,-3.44408 6.80888,-3.24589 1.57839,-0.04966 4.72309,1.01288 2.63774,-6.36805 -4.05596,-2.62351 -1.08097,-1.15121 -2.51941,-7.1098 2.43533,-2.43533 7.1098,2.51941 1.15121,1.08097 2.62351,4.05596 6.36805,-2.63774 -1.01288,-4.72309 0.04966,-1.57839 3.24589,-6.80888 3.44408,0 3.24589,6.80888 0.04966,1.57839 -1.01288,4.72309 6.36805,2.63774 2.62351,-4.05596 1.15121,-1.08097 7.1098,-2.51941 2.43533,2.43533 -2.51941,7.1098 -1.08097,1.15121 -4.05596,2.62351 z"
       style="fill:none;stroke:#000000;stroke-width:1"
       id="path7352"
       inkscape:connector-curvature="0" />
    <circle
       style="fill:none;stroke:#000000;stroke-width:1"
       id="path7354"
       cx="0"
       cy="0"
       r="10" />
  </g>
  <g
     id="g7428"
     inkscape:label="Gear8"
     transform="matrix(7.9617886,0,0,7.9617886,369.22177,476.2108)">
    <path
       id="path7430"
       style="fill:none;stroke:#000000;stroke-width:1"
       d="m 18.67401,-4.00471 4.72309,-1.01288 1.57839,0.04966 6.80888,3.24589 0,3.44408 -6.80888,3.24589 -1.57839,0.04966 -4.72309,-1.01288 -2.63774,6.36805 4.05596,2.62351 1.08097,1.15121 2.51941,7.1098 -2.43533,2.43533 -7.1098,-2.51941 -1.15121,-1.08097 -2.62351,-4.05596 -6.36805,2.63774 1.01288,4.72309 -0.04966,1.57839 -3.24589,6.80888 -3.44408,0 -3.24589,-6.80888 -0.04966,-1.57839 1.01288,-4.72309 -6.36805,-2.63774 -2.62351,4.05596 -1.15121,1.08097 -7.1098,2.51941 -2.43533,-2.43533 2.51941,-7.1098 1.08097,-1.15121 4.05596,-2.62351 -2.63774,-6.36805 -4.72309,1.01288 -1.57839,-0.04966 -6.80888,-3.24589 0,-3.44408 6.80888,-3.24589 1.57839,-0.04966 4.72309,1.01288 2.63774,-6.36805 -4.05596,-2.62351 -1.08097,-1.15121 -2.51941,-7.1098 2.43533,-2.43533 7.1098,2.51941 1.15121,1.08097 2.62351,4.05596 6.36805,-2.63774 -1.01288,-4.72309 0.04966,-1.57839 3.24589,-6.80888 3.44408,0 3.24589,6.80888 0.04966,1.57839 -1.01288,4.72309 6.36805,2.63774 2.62351,-4.05596 1.15121,-1.08097 7.1098,-2.51941 2.43533,2.43533 -2.51941,7.1098 -1.08097,1.15121 -4.05596,2.62351 z"
       inkscape:connector-curvature="0" />
    <circle
       id="path7432"
       style="fill:none;stroke:#000000;stroke-width:1"
       cx="0"
       cy="0"
       r="40" />
  </g>
</svg>
